<?xml version="1.0" encoding="utf-8" standalone="yes"?>
<!DOCTYPE svg PUBLIC "-//W3C//DTD SVG 1.1//EN" "http://www.w3.org/Graphics/SVG/1.1/DTD/svg11.dtd">
<svg width="698" height="521" viewBox="0 0 698 521" style="fill:none;stroke:none;fill-rule:evenodd;clip-rule:evenodd;stroke-linecap:round;stroke-linejoin:round;stroke-miterlimit:1.5;" version="1.1" xmlns="http://www.w3.org/2000/svg" xmlns:xlink="http://www.w3.org/1999/xlink"><style class="text-font-style fontImports" data-font-family="Roboto">@import url('https://fonts.googleapis.com/css2?family=Roboto:wght@400;700&amp;display=block');</style><g id="items" style="isolation: isolate"><g id="blend" style="mix-blend-mode: normal"><g id="g-root-0.cu_sy_1448xyqr8vwg7-fill" data-item-order="-105838" transform="translate(308.801513671875, 396.41064453125)"></g><g id="g-root-8.cu_sy_dhyeb6r8vwg8-fill" data-item-order="-105834" transform="translate(351.3551025390625, 326.5888671875)"></g><g id="g-root-8.line_sy_74d0yr8vuvd-fill" data-item-order="-105829" transform="translate(411, 375)"></g><g id="g-root-7.cu_sy_1hgyeiar8vx1e-fill" data-item-order="-105826" transform="translate(274.7646484375, 326.5687255859375)"></g><g id="g-root-7.line_sy_1464d82r8vvgj-fill" data-item-order="-105821" transform="translate(183, 375)"></g><g id="g-root-6.cu_sy_vahcz6r8vw98-fill" data-item-order="-105818" transform="translate(351.3551025390625, 263.88397216796875)"></g><g id="g-root-6.line_sy_hznboyr8vuod-fill" data-item-order="-105813" transform="translate(447, 327)"></g><g id="g-root-5.cu_sy_4o6tbmr8vw9a-fill" data-item-order="-105810" transform="translate(245.55029296875, 263.8541259765625)"></g><g id="g-root-5.line_sy_1qegu0ir8vuhb-fill" data-item-order="-105805" transform="translate(183, 327)"></g><g id="g-root-4.cu_sy_1hittrmr8vw1s-fill" data-item-order="-105802" transform="translate(351.3551025390625, 201.1793212890625)"></g><g id="g-root-4.line_sy_147zsher8vugx-fill" data-item-order="-105797" transform="translate(471, 242.99993896484375)"></g><g id="g-root-3.cu_sy_vccs8ir8vv9m-fill" data-item-order="-105794" transform="translate(245.00003051757812, 201.1492919921875)"></g><g id="g-root-3.line_sy_i0w9v6r8vwuj-fill" data-item-order="-105789" transform="translate(183, 242.99993896484375)"></g><g id="g-root-2.cu_sy_4g2n76r8x9u4-fill" data-item-order="-105786" transform="translate(351.364990234375, 147.0087890625)"></g><g id="g-root-2.line_sy_952qr8xamd-fill" data-item-order="-105781" transform="translate(423, 146.99993896484375)"></g><g id="g-root-1.cu_sy_1lpwooir8xc06-fill" data-item-order="-105778" transform="translate(258.5999755859375, 147)"></g><g id="g-root-1.line_sy_18f2near8xafb-fill" data-item-order="-105773" transform="translate(183, 146.99993896484375)"></g><g id="g-root-tx_reactjs_1q6z4z6r9cs8z-fill" data-item-order="0" transform="translate(531, 231)"><g id="tx_reactjs_1q6z4z6r9cs8z-fill" stroke="none" fill="#484848"><g><text style="font: 20px &quot;Roboto&quot;, sans-serif; white-space: pre;" font-size="20px" font-family="'Roboto', sans-serif"><tspan x="12" y="34" dominant-baseline="ideographic">REACT.js</tspan></text></g></g></g><g id="g-root-add_v7zgmqr94b2f-fill" data-item-order="0" transform="translate(291, 279)"></g><g id="g-root-art_vahcz6r8ynt9-fill" data-item-order="0" transform="translate(375, 279)"></g><g id="g-root-tx_photosho_m7z4s2r9crnu-fill" data-item-order="0" transform="translate(39, 327)"><g id="tx_photosho_m7z4s2r9crnu-fill" stroke="none" fill="#484848"><g><text style="font: 20px &quot;Roboto&quot;, sans-serif; white-space: pre;" font-size="20px" font-family="'Roboto', sans-serif"><tspan x="20.53" y="34" dominant-baseline="ideographic">PHOTOSHOP</tspan></text></g></g></g><g id="g-root-pent_hva036r95on7-fill" data-item-order="0" transform="translate(381, 219)"></g><g id="g-root-scri_1hjgauqr95onj-fill" data-item-order="0" transform="translate(285, 219)"></g><g id="g-root-tx_javascri_zkolbmr9cs90-fill" data-item-order="0" transform="translate(51, 231)"><g id="tx_javascri_zkolbmr9cs90-fill" stroke="none" fill="#484848"><g><text style="font: 20px &quot;Roboto&quot;, sans-serif; white-space: pre;" font-size="20px" font-family="'Roboto', sans-serif"><tspan x="12.8" y="34" dominant-baseline="ideographic">JAVASCRIPT</tspan></text></g></g></g><g id="g-root-1_1hbylter99ybz-fill" data-item-order="0" transform="translate(363, 159)"></g><g id="g-root-tx_illustra_1cu9ofmr9crnt-fill" data-item-order="0" transform="translate(531, 327)"><g id="tx_illustra_1cu9ofmr9crnt-fill" stroke="none" fill="#484848"><g><text style="font: 20px &quot;Roboto&quot;, sans-serif; white-space: pre;" font-size="20px" font-family="'Roboto', sans-serif"><tspan x="12" y="34" dominant-baseline="ideographic">ILLUSTRATOR</tspan></text></g></g></g><g id="g-root-4_vccs8ir8x9fl-fill" data-item-order="0" transform="translate(309, 345)"></g><g id="g-root-box_1cw53oyr8xbt5-fill" data-item-order="0" transform="translate(357, 345)"></g><g id="g-root-html_1uljoxer9bbwr-fill" data-item-order="0" transform="translate(303, 159)"></g><g id="g-root-tx_css_8ye1o2r9cs91-fill" data-item-order="0" transform="translate(531, 135)"><g id="tx_css_8ye1o2r9cs91-fill" stroke="none" fill="#484848"><g><text style="font: 20px &quot;Roboto&quot;, sans-serif; white-space: pre;" font-size="20px" font-family="'Roboto', sans-serif"><tspan x="12" y="34" dominant-baseline="ideographic">CSS</tspan></text></g></g></g><g id="g-root-tx_figma_18n6tiqr9bbpj-fill" data-item-order="0" transform="translate(531, 423)"><g id="tx_figma_18n6tiqr9bbpj-fill" stroke="none" fill="#484848"><g><text style="font: 20px &quot;Roboto&quot;, sans-serif; white-space: pre;" font-size="20px" font-family="'Roboto', sans-serif"><tspan x="12" y="34" dominant-baseline="ideographic">FIGMA</tspan></text></g></g></g><g id="g-root-tx_visualst_i0w9v6r9bbpk-fill" data-item-order="0" transform="translate(15, 411)"><g id="tx_visualst_i0w9v6r9bbpk-fill" stroke="none" fill="#484848"><g><text style="font: 20px &quot;Roboto&quot;, sans-serif; white-space: pre;" font-size="20px" font-family="'Roboto', sans-serif"><tspan x="23.22" y="34" dominant-baseline="ideographic">VISUAL STUDIO </tspan><tspan x="113" y="58" dominant-baseline="ideographic">CODE</tspan></text></g></g></g><g id="g-root-tx_html_18i70tur9cpou-fill" data-item-order="0" transform="translate(111, 135)"><g id="tx_html_18i70tur9cpou-fill" stroke="none" fill="#484848"><g><text style="font: 20px &quot;Roboto&quot;, sans-serif; white-space: pre;" font-size="20px" font-family="'Roboto', sans-serif"><tspan x="14.28" y="34" dominant-baseline="ideographic">HTML</tspan></text></g></g></g><g id="g-root-0.cu_sy_1448xyqr8vwg7-stroke" data-item-order="-105838" transform="translate(308.801513671875, 396.41064453125)"><g id="0.cu_sy_1448xyqr8vwg7-stroke" fill="none" stroke-linecap="round" stroke-linejoin="round" stroke-miterlimit="4" stroke="#808080" stroke-width="2"><g><path d="M 39.434082 68.532227C 41.181382 72.624727 46.393282 75.589227 52.563582 75.589227C 58.733982 75.589227 63.945682 72.624727 65.692982 68.532227C 61.848982 69.560327 57.356082 70.159227 52.563582 70.159227C 47.771082 70.159227 43.278082 69.560327 39.434082 68.532227ZM 26.853759 59.329346C 27.802259 65.388246 38.944859 70.159446 52.563559 70.159446C 66.182359 70.159446 77.334859 65.378246 78.273459 59.329346C 72.232859 61.046146 62.967359 62.144146 52.563559 62.144146C 42.159859 62.144146 32.884359 61.046146 26.853759 59.329346ZM 14.8624 10C 11.7672 13.5834 10 16.7176 10 18.3447C 10 19.4925 10.8786 20.5905 12.4761 21.6186C 14.5728 22.9562 15.2717 25.6612 14.0336 27.8173C 13.2748 29.1348 12.8755 30.2328 12.8755 30.9814C 12.8755 32.1393 13.834 33.2473 15.5713 34.2654C 17.7279 35.5231 18.5766 38.2581 17.3385 40.4341C 16.6596 41.6219 16.3001 42.62 16.3001 43.2988C 16.3001 44.3469 17.1588 45.3451 18.7164 46.2733C 20.843 47.531 21.4521 50.286 20.3138 52.4719C 19.8546 53.3603 19.605 54.099 19.605 54.628C 19.605 58.7804 34.3619 62.1442 52.5535 62.1442C 70.7451 62.1442 85.502 58.7804 85.502 54.628C 85.502 54.099 85.2623 53.3603 84.7931 52.4719C 83.6548 50.286 84.274 47.531 86.3907 46.2733C 87.9482 45.355 88.8068 44.3469 88.8068 43.2988C 88.8068 42.62 88.4474 41.6319 87.7685 40.4341C 86.5304 38.268 87.379 35.5331 89.5356 34.2654C 91.2829 33.2473 92.2315 32.1393 92.2315 30.9814C 92.2315 30.2328 91.8321 29.1348 91.0733 27.8173C 89.8352 25.6612 90.5342 22.9462 92.6309 21.6186C 94.2384 20.6005 95.107 19.4925 95.107 18.3447C 95.107 16.7176 93.3398 13.5834 90.2446 10C 83.1357 13.0943 68.9279 15.2104 52.5435 15.2104C 36.1591 15.2104 21.9713 13.0943 14.8624 10ZM 16.300171 43.298584C 16.300171 47.870184 32.534871 51.573384 52.563571 51.573384C 72.592271 51.573384 88.826871 47.870184 88.826871 43.298584M 12.87561 30.991455C 12.87561 35.992255 30.64781 40.044855 52.56361 40.044855C 74.47931 40.044855 92.25161 35.992255 92.25161 30.991455M 10 18.344482C 10 23.704682 29.0602 28.056682 52.5635 28.056682C 76.0668 28.056682 95.127 23.704682 95.127 18.344482"></path></g></g></g><g id="g-root-8.cu_sy_dhyeb6r8vwg8-stroke" data-item-order="-105834" transform="translate(351.3551025390625, 326.5888671875)"><g id="8.cu_sy_dhyeb6r8vwg8-stroke" fill="none" stroke-linecap="round" stroke-linejoin="round" stroke-miterlimit="4" stroke="#ba5de5" stroke-width="2"><g><path d="M 10.01 10L 10 85.0621C 26.8936 85.0621 41.4907 82.8162 48.37 79.5622C 49.7478 78.9134 50.8162 77.2564 51.5351 75.7991C 52.224 74.4017 52.5534 72.8645 52.5934 71.2974C 53.1225 50.5355 62.2084 30.7519 78.0936 17.3066C 80.8093 15.0108 83.4053 12.5753 85.8714 10.02L 10.01 10Z"></path></g></g></g><g id="g-root-8.line_sy_74d0yr8vuvd-stroke" data-item-order="-105829" transform="translate(411, 375)"><g id="8.line_sy_74d0yr8vuvd-stroke" fill="none" stroke-linecap="round" stroke-linejoin="round" stroke-miterlimit="4" stroke="#484848" stroke-width="2"><g><path d="M 118.000034 70.000034L 70.000034 70.000034L 11.410034 11.410034"></path><path d="M 20.210034 11.110034L 11.110034 11.110034L 11.110034 20.210034" stroke-dasharray="none"></path></g></g></g><g id="g-root-7.cu_sy_1hgyeiar8vx1e-stroke" data-item-order="-105826" transform="translate(274.7646484375, 326.5687255859375)"><g id="7.cu_sy_1hgyeiar8vx1e-stroke" fill="none" stroke-linecap="round" stroke-linejoin="round" stroke-miterlimit="4" stroke="#de58a9" stroke-width="2"><g><path d="M 86.6104 10L 10 10.01C 12.4062 12.5054 14.9324 14.881 17.5782 17.1369C 33.6531 30.8118 43.338 50.4856 44.0069 71.497C 44.0768 73.6431 44.6858 75.7592 45.9538 77.486C 46.5829 78.3544 47.3717 79.1429 48.2803 79.5722C 55.1695 82.8162 69.7467 85.0521 86.6004 85.0521L 86.6104 10Z"></path></g></g></g><g id="g-root-7.line_sy_1464d82r8vvgj-stroke" data-item-order="-105821" transform="translate(183, 375)"><g id="7.line_sy_1464d82r8vvgj-stroke" fill="none" stroke-linecap="round" stroke-linejoin="round" stroke-miterlimit="4" stroke="#484848" stroke-width="2"><g><path d="M 10 70.000034L 58 70.000034L 116.59 11.410034"></path><path d="M 116.9 20.210034L 116.9 11.110034L 107.7 11.110034" stroke-dasharray="none"></path></g></g></g><g id="g-root-6.cu_sy_vahcz6r8vw98-stroke" data-item-order="-105818" transform="translate(351.3551025390625, 263.88397216796875)"><g id="6.cu_sy_vahcz6r8vw98-stroke" fill="none" stroke-linecap="round" stroke-linejoin="round" stroke-miterlimit="4" stroke="#e55753" stroke-width="2"><g><path d="M 10 10L 10.01 72.7148L 85.8914 72.7048C 101.9463 56.0953 112.6097 34.2654 115.0958 10L 10 10Z"></path></g></g></g><g id="g-root-6.line_sy_hznboyr8vuod-stroke" data-item-order="-105813" transform="translate(447, 327)"><g id="6.line_sy_hznboyr8vuod-stroke" fill="none" stroke-linecap="round" stroke-linejoin="round" stroke-miterlimit="4" stroke="#484848" stroke-width="2"><g><path d="M 82.000034 22.000034L 22.000034 22.000034L 11.410034 11.410034"></path><path d="M 20.210034 11.110034L 11.110034 11.110034L 11.110034 20.210034" stroke-dasharray="none"></path></g></g></g><g id="g-root-5.cu_sy_4o6tbmr8vw9a-stroke" data-item-order="-105810" transform="translate(245.55029296875, 263.8541259765625)"><g id="5.cu_sy_4o6tbmr8vw9a-stroke" fill="none" stroke-linecap="round" stroke-linejoin="round" stroke-miterlimit="4" stroke="#de8431" stroke-width="2"><g><path d="M 115.8248 72.7247L 115.8148 10L 10 10.01C 12.4861 34.2754 23.1495 56.1053 39.2044 72.7148L 115.8248 72.7247Z"></path></g></g></g><g id="g-root-5.line_sy_1qegu0ir8vuhb-stroke" data-item-order="-105805" transform="translate(183, 327)"><g id="5.line_sy_1qegu0ir8vuhb-stroke" fill="none" stroke-linecap="round" stroke-linejoin="round" stroke-miterlimit="4" stroke="#484848" stroke-width="2"><g><path d="M 10 22.000034L 70 22.000034L 80.59 11.410034"></path><path d="M 80.9 20.210034L 80.9 11.110034L 71.7 11.110034" stroke-dasharray="none"></path></g></g></g><g id="g-root-4.cu_sy_1hittrmr8vw1s-stroke" data-item-order="-105802" transform="translate(351.3551025390625, 201.1793212890625)"><g id="4.cu_sy_1hittrmr8vw1s-stroke" fill="none" stroke-linecap="round" stroke-linejoin="round" stroke-miterlimit="4" stroke="#e0cb15" stroke-width="2"><g><path d="M 10.01 10L 10 72.7247L 115.0758 72.7148C 115.4452 69.1313 115.6449 65.488 115.6449 61.8048C 115.6449 42.9894 110.7325 25.3218 102.1359 10.01L 10.01 10Z"></path></g></g></g><g id="g-root-4.line_sy_147zsher8vugx-stroke" data-item-order="-105797" transform="translate(471, 242.99993896484375)"><g id="4.line_sy_147zsher8vugx-stroke" fill="none" stroke-linecap="round" stroke-linejoin="round" stroke-miterlimit="4" stroke="#484848" stroke-width="2"><g><path d="M 58 10.000061L 12 10.000061"></path><path d="M 18 3.500061L 11.5 10.000061L 18 16.500061" stroke-dasharray="none"></path></g></g></g><g id="g-root-3.cu_sy_vccs8ir8vv9m-stroke" data-item-order="-105794" transform="translate(245.00003051757812, 201.1492919921875)"><g id="3.cu_sy_vccs8ir8vv9m-stroke" fill="none" stroke-linecap="round" stroke-linejoin="round" stroke-miterlimit="4" stroke="#92bd39" stroke-width="2"><g><path d="M 116.374969 72.7247L 10.560169 72.7148C 10.130869 68.4426 9.931269 64.0906 10.021169 59.6887C 10.380569 41.7018 15.282869 24.7729 23.619869 10.01L 116.384869 10L 116.374969 72.7247Z"></path></g></g></g><g id="g-root-3.line_sy_i0w9v6r8vwuj-stroke" data-item-order="-105789" transform="translate(183, 242.99993896484375)"><g id="3.line_sy_i0w9v6r8vwuj-stroke" fill="none" stroke-linecap="round" stroke-linejoin="round" stroke-miterlimit="4" stroke="#484848" stroke-width="2"><g><path d="M 10 10.000061L 56 10.000061"></path><path d="M 50 16.500061L 56.5 10.000061L 50 3.500061" stroke-dasharray="none"></path></g></g></g><g id="g-root-2.cu_sy_4g2n76r8x9u4-stroke" data-item-order="-105786" transform="translate(351.364990234375, 147.0087890625)"><g id="2.cu_sy_4g2n76r8x9u4-stroke" fill="none" stroke-linecap="round" stroke-linejoin="round" stroke-miterlimit="4" stroke="#3cc583" stroke-width="2"><g><path d="M 102.126 64.1605C 84.0342 31.9297 49.5682 10.1298 10 10L 10.01 64.1705L 102.126 64.1605Z"></path></g></g></g><g id="g-root-2.line_sy_952qr8xamd-stroke" data-item-order="-105781" transform="translate(423, 146.99993896484375)"><g id="2.line_sy_952qr8xamd-stroke" fill="none" stroke-linecap="round" stroke-linejoin="round" stroke-miterlimit="4" stroke="#484848" stroke-width="2"><g><path d="M 106.000034 10.000061L 22.000034 10.000061L 11.410034 20.590061"></path><path d="M 11.110034 11.700061L 11.110034 20.900061L 20.210034 20.900061" stroke-dasharray="none"></path></g></g></g><g id="g-root-1.cu_sy_1lpwooir8xc06-stroke" data-item-order="-105778" transform="translate(258.5999755859375, 147)"><g id="1.cu_sy_1lpwooir8xc06-stroke" fill="none" stroke-linecap="round" stroke-linejoin="round" stroke-miterlimit="4" stroke="#1eabda" stroke-width="2"><g><path d="M 102.7551 10.008884C 102.1261 10.008884 101.507 9.988884 100.878 10.008884C 62.0187 10.547884 28.0019 32.307884 10 64.179284L 102.7651 64.169384L 102.7551 10.008884Z"></path></g></g></g><g id="g-root-1.line_sy_18f2near8xafb-stroke" data-item-order="-105773" transform="translate(183, 146.99993896484375)"><g id="1.line_sy_18f2near8xafb-stroke" fill="none" stroke-linecap="round" stroke-linejoin="round" stroke-miterlimit="4" stroke="#484848" stroke-width="2"><g><path d="M 10 10.000061L 94 10.000061L 104.59 20.590061"></path><path d="M 95.7 20.900061L 104.9 20.900061L 104.9 11.700061" stroke-dasharray="none"></path></g></g></g><g id="g-root-tx_reactjs_1q6z4z6r9cs8z-stroke" data-item-order="0" transform="translate(531, 231)"></g><g id="g-root-add_v7zgmqr94b2f-stroke" data-item-order="0" transform="translate(291, 279)"><g id="add_v7zgmqr94b2f-stroke" fill="none" stroke-linecap="round" stroke-linejoin="round" stroke-miterlimit="4" stroke="#de8431" stroke-width="2"><g><path d="M 12.25 10.75L 43.75 10.75C 43.75 10.75 45.25 10.75 45.25 12.25L 45.25 43.75C 45.25 43.75 45.25 45.25 43.75 45.25L 12.25 45.25C 12.25 45.25 10.75 45.25 10.75 43.75L 10.75 12.25C 10.75 12.25 10.75 10.75 12.25 10.75M 28 23.5C 28 25.985283 25.985283 28 23.5 28L 20.5 28L 20.5 19L 23.5 19C 25.985283 19 28 21.014719 28 23.5ZM 20.5 28L 20.5 34M 31 31.539999C 31.207378 33.196606 32.718288 34.37154 34.374931 34.164459C 36.031574 33.957378 37.206783 32.446682 37 30.789999C 37 28.719999 34 28 34 28C 34 28 31 27.280001 31 25.210001C 30.793219 23.55332 31.968424 22.042622 33.625069 21.835541C 35.281708 21.62846 36.792622 22.803394 37 24.459999"></path></g></g></g><g id="g-root-art_vahcz6r8ynt9-stroke" data-item-order="0" transform="translate(375, 279)"><g id="art_vahcz6r8ynt9-stroke" fill="none" stroke-linecap="round" stroke-linejoin="round" stroke-miterlimit="4" stroke="#e55753" stroke-width="2"><g><path d="M 12.25 10.75L 43.75 10.75C 43.75 10.75 45.25 10.75 45.25 12.25L 45.25 43.75C 45.25 43.75 45.25 45.25 43.75 45.25L 12.25 45.25C 12.25 45.25 10.75 45.25 10.75 43.75L 10.75 12.25C 10.75 12.25 10.75 10.75 12.25 10.75M 29.5 34.75L 25 19L 23.5 19L 19 34.75M 20.709999 28.75L 27.789999 28.75M 33.25 25L 33.25 34.75M 33.25 19L 33.25 21.25"></path></g></g></g><g id="g-root-tx_photosho_m7z4s2r9crnu-stroke" data-item-order="0" transform="translate(39, 327)"></g><g id="g-root-pent_hva036r95on7-stroke" data-item-order="0" transform="translate(381, 219)"><g id="pent_hva036r95on7-stroke" fill="none" stroke-linecap="round" stroke-linejoin="round" stroke-miterlimit="4" stroke="#e0cb15" stroke-width="2"><g><path d="M 22.674999 42.310001L 27.174999 45.040001C 27.639103 45.307949 28.210899 45.307949 28.674999 45.040001L 42.369999 36.82C 42.835953 36.550987 43.122139 36.053028 43.119999 35.514999L 43.119999 20.5C 43.122139 19.961973 42.835953 19.464012 42.369999 19.195L 28.780001 10.96C 28.315899 10.692051 27.744102 10.692051 27.280001 10.96L 13.525 19.18C 13.059049 19.449013 12.772864 19.946972 12.775 20.485001L 12.775 35.5C 12.772864 36.038025 13.059049 36.535988 13.525 36.805L 17.635 39.264999C 18.662724 39.880039 19.941568 39.89579 20.984127 39.306248C 22.026686 38.716705 22.672337 37.612701 22.674999 36.415001L 22.674999 21.91M 27.25 31C 27.247147 32.467571 28.342884 33.705109 29.799999 33.879997C 31.095076 34.040039 32.404926 34.040039 33.700001 33.880001C 35.157116 33.705109 36.252853 32.467571 36.25 31C 36.244236 29.69199 35.291737 28.580744 34 28.374998L 31.75 28L 29.5 27.625C 28.20826 27.419254 27.255762 26.308008 27.249998 25C 27.247147 23.532429 28.342884 22.294888 29.799999 22.119999C 31.095076 21.959963 32.404926 21.959963 33.700001 22.120001C 35.157116 22.294888 36.252853 23.532429 36.25 25"></path></g></g></g><g id="g-root-scri_1hjgauqr95onj-stroke" data-item-order="0" transform="translate(285, 219)"><g id="scri_1hjgauqr95onj-stroke" fill="none" stroke-linecap="round" stroke-linejoin="round" stroke-miterlimit="4" stroke="#92bd39" stroke-width="2"><g><path d="M 39.25 24.25L 39.25 19.717001C 39.252487 14.76539 35.239109 10.749999 30.287498 10.75L 12.25 10.75C 11.421573 10.75 10.75 11.421573 10.75 12.25L 10.75 43.75C 10.75 44.578426 11.421573 45.25 12.25 45.25L 37.75 45.25C 38.578426 45.25 39.25 44.578426 39.25 43.75L 39.25 42.25M 31.75 10.876L 31.75 16.75C 31.75 17.578426 32.421574 18.25 33.25 18.25L 39.130001 18.25M 22.75 28.75L 22.75 35.5C 22.75 36.742641 21.742641 37.75 20.5 37.75C 19.25736 37.75 18.25 36.742641 18.25 35.5M 25.75 37.75L 25.75 31C 25.75 29.75736 26.75736 28.75 28 28.75C 29.242641 28.75 30.25 29.75736 30.25 31L 30.25 37.75M 25.75 33.256001L 30.25 33.256001M 40.75 37.75L 40.75 31C 40.75 29.75736 41.757362 28.75 43 28.75C 44.242641 28.75 45.25 29.75736 45.25 31L 45.25 37.75M 40.75 33.256001L 45.25 33.256001M 37.75 28.75L 37.75 31C 37.750004 33.434166 36.960503 35.80267 35.5 37.750004C 34.039501 35.80267 33.25 33.434166 33.25 31.000002L 33.25 28.75"></path></g></g></g><g id="g-root-tx_javascri_zkolbmr9cs90-stroke" data-item-order="0" transform="translate(51, 231)"></g><g id="g-root-1_1hbylter99ybz-stroke" data-item-order="0" transform="translate(363, 159)"><g id="1_1hbylter99ybz-stroke" fill="none" stroke-linecap="round" stroke-linejoin="round" stroke-miterlimit="4" stroke="#3cc583" stroke-width="2"><g><path d="M 39.25 28.75L 39.25 19.717001C 39.252487 14.76539 35.239109 10.749999 30.287498 10.75L 12.25 10.75C 11.421573 10.75 10.75 11.421573 10.75 12.25L 10.75 43.75C 10.75 44.578426 11.421573 45.25 12.25 45.25L 18.25 45.25M 31.75 10.876L 31.75 16.75C 31.75 17.578426 32.421574 18.25 33.25 18.25L 39.130001 18.25M 27.25 45.25C 23.936291 45.25 21.25 42.563709 21.25 39.25C 21.25 35.936291 23.936291 33.25 27.25 33.25M 45.25 33.25L 42.030998 33.25C 40.741592 33.250465 39.621609 34.137184 39.325386 35.392109C 39.029167 36.647034 39.634403 37.940987 40.787502 38.518002L 43.712502 39.980499C 44.867359 40.556652 45.474072 41.851624 45.177658 43.107719C 44.881241 44.363819 43.759598 45.250931 42.469002 45.25L 39.25 45.25M 36.25 33.25L 33.030998 33.25C 31.741592 33.250465 30.621609 34.137184 30.325386 35.392109C 30.029165 36.647034 30.634403 37.940987 31.7875 38.518002L 34.712502 39.980499C 35.867359 40.556652 36.474072 41.851624 36.177658 43.107719C 35.881241 44.363819 34.759598 45.250931 33.469002 45.25L 30.25 45.25"></path></g></g></g><g id="g-root-tx_illustra_1cu9ofmr9crnt-stroke" data-item-order="0" transform="translate(531, 327)"></g><g id="g-root-4_vccs8ir8x9fl-stroke" data-item-order="0" transform="translate(309, 345)"><g id="4_vccs8ir8x9fl-stroke" fill="none" stroke-linecap="round" stroke-linejoin="round" stroke-miterlimit="4" stroke="#de58a9" stroke-width="2"><g><path d="M 40 39.25L 13.75 19.75L 10.75 22L 10.75 34L 13.75 36.25L 40 16.75L 45.25 20.5L 45.25 35.5L 40 39.25Z"></path></g></g></g><g id="g-root-box_1cw53oyr8xbt5-stroke" data-item-order="0" transform="translate(357, 345)"><g id="box_1cw53oyr8xbt5-stroke" fill="none" stroke-linecap="round" stroke-linejoin="round" stroke-miterlimit="4" stroke="#ba5de5" stroke-width="2"><g><path d="M 29.5 28C 29.5 30.344448 31.400551 32.244999 33.744999 32.244999C 36.089447 32.244999 37.989998 30.344448 37.989998 28C 37.989998 25.65555 36.089447 23.755001 33.744999 23.755001C 31.400551 23.755001 29.5 25.65555 29.5 28M 28 22.255001L 22.255001 22.255001C 20.129742 22.363562 18.117773 21.291502 17.02256 19.466942C 15.927349 17.642382 15.927349 15.362617 17.02256 13.538057C 18.117773 11.713497 20.129742 10.641438 22.254999 10.75L 28 10.75ZM 28 22.255001L 33.744999 22.255001C 35.870255 22.363562 37.882225 21.291502 38.977436 19.466942C 40.072651 17.642382 40.072651 15.362617 38.977436 13.538057C 37.882225 11.713497 35.870255 10.641438 33.744999 10.75L 28 10.75ZM 28 33.744999L 22.255001 33.744999C 19.081533 33.745834 16.50849 31.173466 16.50849 27.999998C 16.50849 24.826534 19.081533 22.254166 22.254999 22.254999L 28 22.255001ZM 28 39.505001C 27.999989 42.68811 25.418095 45.267746 22.234985 45.264977C 19.051876 45.262207 16.474478 42.678078 16.480007 39.494972C 16.485538 36.311867 19.071899 33.73671 22.254999 33.744999L 28 33.744999Z"></path></g></g></g><g id="g-root-html_1uljoxer9bbwr-stroke" data-item-order="0" transform="translate(303, 159)"><g id="html_1uljoxer9bbwr-stroke" fill="none" stroke-linecap="round" stroke-linejoin="round" stroke-miterlimit="4" stroke="#1eabda" stroke-width="2"><g><path d="M 39.25 24.25L 39.25 19.717001C 39.252487 14.76539 35.239109 10.749999 30.287498 10.75L 12.25 10.75C 11.421573 10.75 10.75 11.421573 10.75 12.25L 10.75 43.75C 10.75 44.578426 11.421573 45.25 12.25 45.25L 37.75 45.25C 38.578426 45.25 39.25 44.578426 39.25 43.75L 39.25 42.25M 31.75 10.876L 31.75 16.75C 31.75 17.578426 32.421574 18.25 33.25 18.25L 39.130001 18.25M 21.25 28.756001L 21.25 37.756001M 16.75 37.756001L 16.75 28.756001M 16.75 33.256001L 21.25 33.256001M 24.25 28.756001L 30.25 28.756001M 27.25 28.756001L 27.25 37.756001M 33.25 37.756001L 33.25 28.756001L 35.5 33.256001L 37.75 28.756001L 37.75 37.756001M 40.75 28.75L 40.75 36.25C 40.75 37.078426 41.421574 37.75 42.25 37.75L 45.25 37.75"></path></g></g></g><g id="g-root-tx_css_8ye1o2r9cs91-stroke" data-item-order="0" transform="translate(531, 135)"></g><g id="g-root-tx_figma_18n6tiqr9bbpj-stroke" data-item-order="0" transform="translate(531, 423)"></g><g id="g-root-tx_visualst_i0w9v6r9bbpk-stroke" data-item-order="0" transform="translate(15, 411)"></g><g id="g-root-tx_html_18i70tur9cpou-stroke" data-item-order="0" transform="translate(111, 135)"></g></g></g></svg>